PathFileType	4	(X/Y/Z)	C:/Users/beibeiliu/ov580/test_trc\sequence.33_training_dense_left.trc
DataRate	CameraRate	NumFrames	NumMarkers	Units	OrigDataRate	OrigDataStartFrame	OrigNumFrames
120	120	18	19	mm	120	33	96
Frame#	Time	ThumbCMC			ThumbMCP			ThumbIP			ThumbTip			IndexMCP			IndexPIP			IndexTip			MiddleMCP			MiddlePIP			MiddleTip			RingMCP			RingPIP			RingTip			PinkyMCP			PinkyPIP			PinkyTip			BackHand1			BackHand2			BackHand3	
		X0	Y0	Z0	X1	Y1	Z1	X2	Y2	Z2	X3	Y3	Z3	X4	Y4	Z4	X5	Y5	Z5	X6	Y6	Z6	X7	Y7	Z7	X8	Y8	Z8	X9	Y9	Z9	X10	Y10	Z10	X11	Y11	Z11	X12	Y12	Z12	X13	Y13	Z13	X14	Y14	Z14	X15	Y15	Z15	X16	Y16	Z16	X17	Y17	Z17	X18	Y18	Z18	
32	0.266667	-134.544	15.9116	129.782	-113.068	10.21	118.217	-93.1506	7.99265	100.403	-78.3793	7.17877	87.7928	-124.332	0.746461	57.1943	-120.885	-15.8724	35.4395	-119.415	-28.7857	12.8815	-146.815	12.4084	43.9907	-140.921	7.51211	20.8408	-132.522	5.67878	-5.35915	-165.672	16.3895	45.0722	-164.88	15.0649	23.8043	-159.068	16.7208	-1.8049	-192.968	14.7973	53.7046	-188.696	15.5167	32.5118	-189.96	24.417	9.32424	-178.839	32.9977	87.3312	-182.664	40.2382	118.253	-153.738	32.8749	108.211	
33	0.275	-126.753	7.56606	132.725	-107.5	-2.11983	118.061	-89.59	-8.63588	96.5143	-76.8572	-12.1792	89.1376	-126.501	-12.1092	55.9823	-125.582	-29.4502	36.2417	-126.971	-46.6563	15.8356	-138.346	4.78519	42.8034	-135.741	0.18337	22.2586	-128.22	-1.19726	-1.69666	-157.14	15.4639	44.0265	-156.292	15.4997	24.4787	-149.083	19.5305	-2.30214	-183.718	22.8174	51.5193	-180.592	22.6077	32.8084	-181.25	36.1146	14.9316	-163.873	32.4342	88.5309	-168.088	42.0007	114.142	-140.812	28.3653	107.248	
34	0.283333	-126.049	3.48263	131.641	-106.01	-9.23871	119.084	-91.7392	-15.8807	99.0272	-77.026	-21.1276	84.8192	-124.525	-17.4782	56.8242	-129.021	-37.6233	33.466	-134.111	-49.9824	16.9009	-134.559	1.86081	41.1839	-133.345	-3.33488	18.6061	-125.333	-5.55332	-7.52353	-154.858	16.9898	44.2599	-148.033	14.8704	22.3577	-143.055	19.1988	-3.07338	-179.447	23.8492	55.8962	-174.791	26.6756	31.8222	-169.857	37.5718	13.6057	-157.276	32.3223	88.1511	-161.308	44.0584	117.121	-136.001	25.2241	106.389	
35	0.291667	-123.73	-0.565436	133.501	-106.802	-13.0833	114.47	-94.8015	-20.8384	96.5425	-79.9714	-28.9792	81.8438	-124.163	-21.3245	55.2774	-129.259	-42.4852	34.5441	-138.897	-53.6374	17.999	-136.696	1.9451	39.6519	-132.307	-7.11707	18.9689	-125.175	-9.60023	-5.983	-153.131	16.7607	43.3885	-147.403	14.6687	20.6265	-141.956	15.631	-1.34906	-173.459	27.6124	50.935	-171.544	28.5591	30.7243	-170.022	38.5563	14.2496	-154.039	34.2399	85.3526	-155.536	45.9707	114.414	-132.817	22.2767	108.597	
36	0.3	-121.851	-6.09359	135.035	-109.119	-21.0791	116.678	-97.5014	-31.682	98.9492	-79.7746	-42.5674	87.2212	-131.321	-28.0504	57.1222	-137.442	-44.6959	40.4909	-149.968	-60.5511	22.0208	-137.536	-6.91642	45.3442	-135.846	-16.7134	25.3718	-134.69	-18.6677	-2.14303	-153.984	9.37643	47.641	-151.651	5.13644	26.7884	-143.415	4.41949	-2.67615	-171.805	20.4256	53.2042	-171.662	20.3426	34.0681	-169.96	32.5486	13.0126	-153.558	30.9618	89.9581	-149.674	41.5778	114.651	-130.063	16.5568	109.406	
37	0.308333	-121.418	-12.6724	135.895	-107.821	-30.3029	120.136	-97.6794	-43.5121	105.346	-82.3298	-55.6625	93.7368	-136.147	-45.0001	61.4296	-143.793	-63.377	48.0964	-155.159	-81.2151	34.3156	-143.95	-21.7215	51.437	-144.717	-34.2359	30.2836	-144.094	-40.2677	5.1172	-158.743	-5.03966	50.8308	-155.143	-14.1053	27.9256	-153.462	-12.766	1.01122	-176.939	10.1819	62.2766	-179.719	8.41594	40.3763	-173.878	13.995	21.6908	-149.769	18.3503	94.6395	-149.975	36.1344	115.424	-125.626	4.86191	110.303	
38	0.316667	-120.531	-13.8419	137.219	-104.046	-34.3962	126.193	-92.8484	-48.9668	107.726	-85.4263	-60.7112	96.6973	-133.687	-50.0916	69.5841	-141.827	-74.6841	56.8923	-157.188	-89.825	41.8961	-141.02	-33.1648	55.8674	-146.371	-45.4904	34.102	-146.514	-54.6323	6.88456	-156.983	-15.996	52.747	-158.502	-22.084	32.3422	-156.993	-24.9622	7.99522	-177.092	0.780574	61.5384	-182.58	1.32665	43.3338	-179.363	10.0847	19.5884	-152.621	14.3266	94.2428	-145.175	28.2789	116.441	-123.388	1.89335	111.588	
39	0.325	-118.973	-14.8628	138.406	-107.468	-34.1103	127.796	-92.9645	-51.9573	106.815	-80.0848	-65.5256	93.7241	-133.828	-54.6725	68.1208	-140.32	-72.2786	59.0972	-155.295	-93.449	44.1497	-143.23	-32.8518	52.3919	-146.559	-47.5649	33.7218	-148.428	-56.1372	12.2851	-154.723	-15.6959	54.712	-158.313	-21.8547	31.8935	-157.366	-24.0575	5.40332	-174.999	3.1818	60.6513	-179.339	2.52982	42.3863	-178.076	9.46201	19.5019	-145.477	13.5092	94.8085	-144.077	29.5157	117.434	-120.944	0.99452	115.308	
40	0.333333	-112.35	-16.781	141.237	-103.689	-34.4497	127.493	-91.0878	-50.5656	109.478	-79.3289	-64.3271	98.6692	-130.283	-51.9083	69.3162	-138.413	-72.6007	61.1209	-152.742	-88.5381	46.5025	-139.24	-30.9091	55.2798	-142.979	-44.7935	37.6158	-142.68	-60.3839	14.4465	-152.547	-11.0442	54.4567	-153.224	-19.0545	34.4091	-151.579	-26.6238	6.99211	-167.745	6.30046	64.9081	-174.103	7.43144	44.3734	-168.629	12.3949	22.279	-144.608	17.397	92.5775	-138.705	32.285	119.506	-118.692	5.37774	115.223	
41	0.341667	-110.408	-1.94441	144.043	-103.135	-20.2156	133.484	-87.159	-38.6721	111.125	-77.5002	-49.5622	98.7319	-121.303	-42.5081	77.5119	-128.121	-63.5145	68.2938	-142.497	-83.1166	55.6891	-135.157	-26.5825	58.0865	-137.025	-42.6801	42.8046	-139.934	-55.9048	19.3637	-150.481	-7.25758	56.6479	-148.926	-20.4261	38.7614	-146.711	-29.6057	14.2263	-169.123	11.102	63.3424	-170.953	6.77213	43.7529	-168.572	13.563	19.6668	-143.886	24.0424	95.015	-140.106	39.6158	119.715	-117.294	16.2309	118.679	
42	0.35	-117.9	30.063	138.996	-98.3043	16.8794	130.938	-87.0082	1.72402	108.706	-73.0632	-7.07065	98.1263	-107.914	-18.6196	82.4062	-109.718	-47.0054	77.0051	-115.288	-73.993	72.0126	-127.808	-16.9196	63.1001	-126.063	-34.1831	50.7317	-117.355	-52.6901	31.2535	-148.758	-5.55856	59.9455	-146.055	-20.3383	41.1651	-137.165	-31.1237	22.0659	-172.554	5.47133	63.9691	-170.231	-2.3982	45.9619	-168.104	0.990159	24.7244	-156.371	36.3778	92.8367	-161.72	55.1394	113.158	-130.456	42.698	113.074	
43	0.358333	-143.66	68.8908	122.947	-122.323	63.6036	112.271	-102.467	59.1449	96.7215	-82.7474	53.4431	80.5084	-109.122	12.5299	77.2337	-91.6105	-4.043	80.8933	-83.135	-29.6392	85.9847	-124.787	3.56313	64.932	-105.556	-12.4516	56.8568	-94.0066	-28.5566	43.7971	-140.28	-3.30069	59.9383	-131.783	-14.7567	49.8563	-120.346	-27.6811	29.5057	-165.576	-5.37726	65.0143	-162.533	-15.9184	51.8014	-163.344	-17.1365	32.6703	-174.241	33.3582	81.7229	-195.773	49.383	98.2945	-160.031	61.7807	97.3058	
44	0.366667	-179.168	70.5246	107.956	-155.474	82.0206	93.8972	-133.896	82.9403	72.3567	-119.218	81.3536	60.7452	-118.517	38.0329	69.7629	-95.6821	29.1038	75.2586	-72.673	13.2954	86.9591	-127.34	19.572	59.3232	-106.53	9.10251	54.6751	-82.7855	0.422957	41.2036	-137.703	-0.212479	56.5199	-124.822	-6.66706	47.9019	-107.223	-16.9288	29.2626	-160.736	-11.7095	69.8879	-150.631	-24.7351	52.4773	-149.433	-29.2963	31.1283	-186.34	19.0345	78.4321	-208.429	29.8994	92.0167	-184.849	53.7479	81.5651	
45	0.375	-201.939	53.3642	97.5052	-185.822	67.8842	79.7123	-170.667	73.4136	62.6902	-159.618	80.5657	47.4557	-135.675	42.1777	58.5036	-109.314	46.5903	64.4356	-84.3704	44.6479	74.5973	-134.684	19.2041	49.6655	-109.888	16.1891	42.3791	-89.4475	16.9196	30.3785	-142.26	0.612086	53.1526	-125.031	-3.80113	42.9089	-104.178	-9.14534	21.5725	-151.963	-23.0075	67.6432	-141.242	-32.5489	56.364	-139.734	-40.4313	37.7949	-188.956	-6.17092	79.647	-215.17	-0.531371	93.3793	-203.554	28.0351	79.2133	
46	0.383333	-217.861	22.3014	91.1651	-209.113	38.4256	73.7781	-196.302	43.39	52.6817	-185.031	49.2521	33.1597	-155.155	19.8191	49.3546	-130.79	28.2628	50.9993	-103.267	33.4021	61.3989	-150.179	-2.29899	42.3437	-126.039	1.09146	30.8966	-104.894	1.96488	19.3101	-150.364	-27.7285	52.9943	-134.828	-23.9351	37.0233	-116.105	-29.1893	19.2741	-153.564	-45.1709	69.3859	-144.116	-49.2062	59.5435	-137.395	-62.5336	41.8167	-192.245	-31.5984	80.2932	-216.24	-34.4873	100.437	-214.16	-4.66307	79.1445	
47	0.391667	-229.904	-2.38563	91.8614	-217.62	7.33239	73.2489	-210.775	15.9425	45.3674	-206.785	23.6739	30.2773	-167.266	-7.44442	43.5801	-147.245	3.07083	44.0294	-119.039	11.7	50.1773	-167.031	-33.6687	41.008	-143.147	-31.7303	27.6436	-121.403	-26.9432	10.7647	-161.918	-53.3915	47.9505	-148.833	-51.5571	34.1655	-131.296	-56.4537	13.5443	-166.543	-68.4282	70.8746	-153.655	-77.5625	56.8144	-149.104	-90.7745	37.9751	-204.506	-58.6234	85.3236	-226.143	-58.8949	99.0714	-227.383	-32.6162	78.7786	
48	0.4	-242.257	-9.06253	93.9428	-230.212	2.35064	73.2758	-224.485	10.7103	44.7336	-216.577	14.3627	26.9456	-182.654	-12.9427	40.4853	-157.989	-2.71784	39.8421	-132.355	6.51655	45.7584	-177.928	-39.6702	39.4329	-156.428	-32.0645	23.5337	-133.806	-28.6491	6.36043	-176.929	-54.9448	48.6151	-157.667	-59.4809	31.1313	-141.898	-55.7664	8.4715	-175.03	-76.3598	67.1718	-164.026	-82.2439	51.5146	-160.964	-93.7074	37.9088	-215.572	-66.1647	83.9107	-234.06	-65.4537	99.9124	-237.839	-42.1322	80.9016	
49	0.408333	-256.008	-7.30996	88.4585	-248.486	2.91598	70.8356	-242.948	10.1972	44.45	-239.881	17.3482	23.7343	-196.739	-2.14477	36.7357	-175.842	14.8362	35.2747	-154.53	27.5259	39.4056	-188.499	-26.1554	34.5105	-168.682	-17.9363	22.4298	-145.482	-13.2407	3.5058	-182.126	-45.0806	44.1719	-165.755	-41.1246	26.9138	-149.787	-41.616	8.2775	-182.673	-58.6461	67.7352	-168.687	-63.757	50.6175	-162.244	-82.0668	34.9241	-219.048	-59.6463	78.9088	-239.231	-60.2676	100.452	-245.993	-38.6901	78.5533	
